# xmcd
#
# Track frame offsets: 
#        150
#        19507
#        37956
#        55816
#        72537
#        88588
#        106509
#        132529
#        153363
#        171055
#        188695
#
# Disc length: 2785 seconds
#
# Revision: 0
# Processed by: cddbd v1.5.2PL0 Copyright (c) Steve Scherf et al.
# Submitted via: ExactAudioCopy v1.1
#
DISCID=840adf0b
DTITLE=Ida Elina - Songs of Freedom
DYEAR=2012
DGENRE=Folk
TTITLE0=Good News
TTITLE1=Only You
TTITLE2=Believe
TTITLE3=In Her Eyes
TTITLE4=Step of Faith
TTITLE5=Something to Make Your Day
TTITLE6=How Sweet Is the Love
TTITLE7=He Loves Me
TTITLE8=Take Me As I Am
TTITLE9=Song of Freedom
TTITLE10=Tyhjä
EXTD=
EXTT0=
EXTT1=
EXTT2=
EXTT3=
EXTT4=
EXTT5=
EXTT6=
EXTT7=
EXTT8=
EXTT9=
EXTT10=
PLAYORDER=
